<svg width="269" height="486" viewBox="0 0 269 486" fill="none" xmlns="http://www.w3.org/2000/svg">
<path d="M124.043 485.362H101.893L143.443 10.0725C143.973 4.00249 149.323 -0.487513 155.393 0.0424874C161.463 0.572487 165.953 5.92249 165.423 11.9925L124.043 485.362Z" fill="url(#paint0_linear_18_124)"/>
<path opacity="0.2" d="M134.902 107.772L133.692 121.612L153.312 144.982L156.402 109.652L134.902 107.772Z" fill="black"/>
<path opacity="0.2" d="M121.732 258.522L120.522 272.352L140.132 295.732L143.222 260.402L121.732 258.522Z" fill="black"/>
<path opacity="0.2" d="M108.482 410.022L107.272 423.862L126.892 447.242L129.982 411.902L108.482 410.022Z" fill="black"/>
<path d="M257.693 52.9524L80.4231 31.0224L81.2831 24.0524C81.8331 19.5924 75.9731 16.6624 72.1231 19.4824L14.3632 61.6724C12.1032 63.3224 11.7332 66.3024 13.5232 68.4524L59.2532 123.442C62.3032 127.112 68.7032 125.692 69.2532 121.242L70.1132 114.272L247.383 136.202C250.443 136.582 253.203 134.682 253.543 131.962L262.623 58.5924C262.963 55.8724 260.753 53.3524 257.683 52.9724L257.693 52.9524Z" fill="#F0088F"/>
<path d="M243.803 126.752C243.523 126.752 243.243 126.732 242.963 126.702L66.193 104.832L65.393 111.312C65.013 114.422 62.123 116.052 59.473 116.052C57.523 116.052 55.723 115.222 54.513 113.782L8.78303 58.7923C7.82303 57.6423 7.40302 56.2423 7.57302 54.8323C7.74302 53.4323 8.50302 52.1723 9.71302 51.2923L67.473 9.10234C68.553 8.31234 69.833 7.90234 71.183 7.90234C73.083 7.90234 74.923 8.71234 76.133 10.0723C77.143 11.2223 77.603 12.6623 77.423 14.1423L76.623 20.6223L253.393 42.4923C254.993 42.6923 256.433 43.4323 257.453 44.5923C258.483 45.7623 258.953 47.2123 258.763 48.6723L249.683 122.052C249.353 124.752 246.823 126.782 243.803 126.782V126.752Z" fill="#F2AD53"/>
<path d="M71.1833 8.38256C74.3233 8.38256 77.3233 10.8126 76.9233 14.0626L76.0633 21.0326L253.333 42.9626C256.393 43.3426 258.613 45.8526 258.273 48.5826L249.193 121.953C248.883 124.443 246.553 126.243 243.813 126.243C243.553 126.243 243.293 126.223 243.033 126.193L65.7633 104.263L64.9033 111.233C64.5633 113.943 62.0733 115.533 59.4733 115.533C57.8033 115.533 56.0933 114.873 54.9033 113.443L9.17328 58.4526C7.38328 56.3026 7.75328 53.3226 10.0133 51.6726L67.7733 9.48256C68.8233 8.71256 70.0133 8.37256 71.1933 8.37256M71.1933 7.37256C69.7333 7.37256 68.3433 7.82256 67.1833 8.67256L9.42328 50.8626C8.10328 51.8226 7.27329 53.2026 7.08329 54.7526C6.89329 56.2926 7.36328 57.8326 8.40328 59.0926L54.1333 114.083C55.4333 115.643 57.3733 116.533 59.4733 116.533C62.3433 116.533 65.4733 114.753 65.8933 111.363L66.6333 105.383L242.913 127.193C243.213 127.233 243.513 127.253 243.813 127.253C247.083 127.253 249.823 125.033 250.183 122.083L259.263 48.7126C259.663 45.4426 257.063 42.4226 253.453 41.9826L77.1733 20.1726L77.9133 14.1926C78.1133 12.5726 77.6133 10.9926 76.5033 9.73256C75.2033 8.26256 73.2133 7.39256 71.1833 7.39256L71.1933 7.37256Z" fill="white"/>
<path d="M113.803 70.6027L112.723 79.7427L106.993 79.0327L108.513 68.0427L110.133 53.2227L119.223 54.3427C121.033 54.5627 122.583 55.4027 123.903 56.8427C125.223 58.2827 125.713 60.3527 125.393 63.0427C125.063 65.8427 124.143 67.9227 122.623 69.2627C121.103 70.6027 119.433 71.1727 117.613 70.9727L113.793 70.6027H113.803ZM119.483 66.4027L120.283 59.9427L113.913 58.6227L112.853 65.6827L119.483 66.3927V66.4027Z" fill="#F0088F"/>
<path d="M133.703 80.5025C133.663 80.4225 133.543 80.5025 133.343 80.7225C133.143 80.9425 132.863 81.1825 132.503 81.4425C132.173 81.6625 131.783 81.8425 131.313 82.0025C130.843 82.1525 130.283 82.2025 129.643 82.1525C127.893 82.0025 126.593 81.4225 125.733 80.4125C124.873 79.4025 124.553 78.0125 124.793 76.2625C125.003 74.5225 125.713 73.2325 126.913 72.3825C128.113 71.5325 129.373 71.1225 130.693 71.1425L134.493 71.1925L134.903 67.8625C134.463 67.7425 134.073 67.6325 133.753 67.5425C133.603 67.5025 133.433 67.4625 133.253 67.4325C133.073 67.4025 132.883 67.3625 132.703 67.3125C132.483 67.2625 132.253 67.2125 132.023 67.1725C131.793 67.1325 131.583 67.1025 131.383 67.0725C131.153 67.0425 130.963 67.0325 130.793 67.0325C130.623 67.0325 130.533 67.0625 130.503 67.1025C130.453 67.1925 130.413 67.2925 130.383 67.4025C130.353 67.5125 130.333 67.6325 130.313 67.7425C130.273 67.9525 130.233 68.1425 130.213 68.3125C130.193 68.4825 130.173 68.6225 130.163 68.7125C130.163 68.7625 130.163 68.7925 130.153 68.8125V68.8825L126.223 68.5325C126.223 68.4825 126.223 68.4525 126.233 68.4325C126.233 68.2425 126.313 67.8425 126.463 67.2225C126.613 66.6025 126.963 65.8925 127.523 65.0925C127.843 64.6125 128.413 64.2825 129.223 64.0825C130.033 63.8925 130.883 63.7925 131.783 63.7825C132.213 63.7625 132.623 63.7825 133.033 63.8125C133.443 63.8525 133.823 63.8925 134.173 63.9325C137.573 64.4925 139.383 65.7325 139.603 67.6425C139.813 69.5525 139.663 72.0025 139.153 74.9925C139.103 75.2425 139.063 75.5025 139.013 75.7725C138.973 76.0425 138.923 76.3125 138.873 76.5825C138.813 76.9025 138.773 77.2425 138.733 77.5825C138.693 77.9225 138.663 78.2925 138.643 78.6625C138.613 79.0325 138.593 79.4125 138.573 79.7825C138.553 80.1525 138.533 80.5025 138.513 80.8325C138.493 81.3925 138.483 81.8625 138.473 82.2225C138.463 82.5825 138.453 82.7925 138.453 82.8325L133.753 82.1425C133.753 82.1425 133.763 82.0525 133.773 82.0025C133.773 81.9325 133.793 81.8325 133.813 81.7025C133.833 81.5725 133.843 81.4425 133.863 81.3025C133.863 81.1425 133.863 80.9825 133.863 80.8225C133.863 80.6725 133.843 80.5525 133.803 80.4825H133.723L133.703 80.5025ZM130.203 74.3825C130.083 74.5325 129.973 74.6825 129.883 74.8325C129.813 74.9925 129.743 75.1825 129.663 75.4025C129.593 75.6325 129.523 75.9025 129.473 76.2225C129.413 76.5925 129.373 76.8925 129.373 77.1325C129.373 77.3725 129.373 77.5425 129.403 77.6625C129.423 77.7825 129.453 77.8925 129.493 77.9925L134.363 78.5925L134.973 74.9325L130.203 74.3825Z" fill="#F0088F"/>
<path d="M153.294 73.3728L153.034 76.1228L148.644 74.8728L148.884 73.3528L149.054 71.5428L146.664 71.1728C146.664 71.1728 146.604 71.7328 146.494 72.7928C146.384 73.8528 146.254 75.0228 146.114 76.3228C146.114 76.3728 146.114 76.4128 146.114 76.4628C146.114 76.5128 146.114 76.5728 146.114 76.6428C146.074 77.0128 146.024 77.3928 145.984 77.7728C145.944 78.1528 145.904 78.5228 145.864 78.8728C145.804 79.3628 145.754 79.8028 145.714 80.1928C145.674 80.5828 145.634 80.9728 145.584 81.3428C145.534 81.7128 145.494 82.0928 145.444 82.4728C145.394 82.8528 145.344 83.2628 145.294 83.7028L140.394 83.0928C140.554 82.1928 140.704 81.3728 140.834 80.6128C140.964 79.8528 141.084 79.1128 141.184 78.4028C141.294 77.6928 141.394 76.9428 141.484 76.1828C141.574 75.4228 141.674 74.5828 141.764 73.6828C141.834 72.9428 141.904 72.2528 141.964 71.6228C142.024 70.9928 142.074 70.3828 142.114 69.7728C142.154 69.1628 142.194 68.5428 142.224 67.9128C142.254 67.2828 142.284 66.5928 142.304 65.8428L146.474 66.7828L146.244 69.5028C146.584 68.8628 146.944 68.3628 147.304 68.0128C147.644 67.6828 148.074 67.3828 148.604 67.1328C149.124 66.8828 149.754 66.7728 150.464 66.8128C151.884 66.8928 152.734 67.5128 153.014 68.6828C153.294 69.8428 153.384 71.1028 153.284 72.4528C153.264 72.5928 153.254 72.7328 153.244 72.8928C153.234 73.0428 153.224 73.1928 153.204 73.3328L153.304 73.3828L153.294 73.3728Z" fill="#F0088F"/>
<path d="M164.553 72.5725L160.483 71.7125L158.963 82.2825L161.433 82.3725L161.913 78.9025L164.973 79.4225C164.943 79.5625 164.903 79.7025 164.883 79.8525C164.853 80.0025 164.823 80.1425 164.793 80.2825C164.483 81.7925 164.013 83.0825 163.393 84.1325C162.773 85.1825 161.303 85.6125 159.003 85.4225C158.863 85.4025 158.723 85.3925 158.573 85.3725C158.423 85.3525 158.273 85.3325 158.113 85.3125C157.413 85.1525 156.763 84.8925 156.173 84.5225C155.583 84.1525 155.223 83.7425 155.083 83.2725C155.073 83.2225 155.063 83.1825 155.043 83.1425C155.023 83.1025 155.013 83.0625 155.003 83.0125C154.973 82.9625 154.953 82.9125 154.933 82.8625C154.913 82.8125 154.893 82.7625 154.883 82.7125C154.773 82.4425 154.703 82.0225 154.663 81.4725C154.623 80.9125 154.683 79.9625 154.833 78.6225C154.893 78.1625 154.953 77.7425 155.013 77.3725C155.073 77.0025 155.143 76.6325 155.203 76.2725C155.283 75.9325 155.363 75.5725 155.443 75.1925C155.523 74.8125 155.623 74.4125 155.723 73.9725L156.403 71.0225C156.403 71.0225 156.403 70.9725 156.403 70.9525C156.403 70.9325 156.413 70.8925 156.443 70.8525C156.443 70.8325 156.443 70.8025 156.443 70.7825C156.443 70.7625 156.443 70.7325 156.443 70.7125C156.453 70.6225 156.453 70.5425 156.443 70.4625C156.443 70.3925 156.403 70.3325 156.363 70.2725C156.343 70.2425 156.323 70.2225 156.293 70.1925C156.283 70.1625 156.263 70.1525 156.243 70.1525H156.193C156.193 70.1525 156.123 70.1525 156.073 70.1525C156.033 70.1525 155.993 70.1525 155.953 70.1525C155.913 70.1725 155.873 70.1825 155.833 70.1925C155.783 70.1925 155.743 70.1925 155.683 70.1925L154.533 70.0525L155.063 66.6225L157.613 66.9425L159.763 61.5625L162.213 61.8625L161.233 67.2425L165.413 67.6925L164.523 72.5525L164.553 72.5725Z" fill="#F0088F"/>
<path d="M175.643 87.3125C175.443 87.2925 175.243 87.2625 175.053 87.2425C174.843 87.2125 174.643 87.1925 174.443 87.1625C174.243 87.1425 174.023 87.1125 173.783 87.0825C173.983 86.0725 174.153 85.1425 174.313 84.2925C174.473 83.4425 174.613 82.6125 174.753 81.8125C174.853 81.2625 174.953 80.7125 175.043 80.1725C175.133 79.6325 175.233 79.0525 175.323 78.4225C175.373 78.1225 175.433 77.8225 175.473 77.5025C175.523 77.1925 175.573 76.8625 175.633 76.5225C175.793 75.5525 175.933 74.6625 176.073 73.8625C176.203 73.0525 176.333 72.2725 176.443 71.5125C176.553 70.7225 176.673 69.9225 176.793 69.0825C176.913 68.2525 177.043 67.3425 177.183 66.3425L174.323 65.9225L174.913 62.0425C175.333 62.0725 175.713 62.0925 176.073 62.0925C176.433 62.0925 176.763 62.1125 177.103 62.1325C177.443 62.1325 177.783 62.1325 178.133 62.1325C178.483 62.1325 178.873 62.1325 179.303 62.1225C179.443 62.1225 179.573 62.1125 179.703 62.1025C179.823 62.1025 179.953 62.0825 180.073 62.0825C180.253 62.0825 180.423 62.0825 180.603 62.0625C180.783 62.0525 180.953 62.0425 181.113 62.0325C181.383 62.0225 181.653 61.9925 181.933 61.9525C182.213 61.9125 182.523 61.8825 182.853 61.8525C182.743 62.2825 182.653 62.6925 182.573 63.0825C182.493 63.4725 182.403 63.8525 182.323 64.2125C182.263 64.4425 182.203 64.6825 182.163 64.9325C182.123 65.1825 182.073 65.4525 182.023 65.7225C181.993 65.9325 181.973 66.1225 181.943 66.2925C181.913 66.4625 181.873 66.6325 181.843 66.7925C181.793 67.0725 181.743 67.3225 181.713 67.5525C181.683 67.7825 181.633 68.0125 181.593 68.2425C181.533 68.6125 181.473 68.9825 181.413 69.3625C181.353 69.7425 181.293 70.1725 181.233 70.6625L179.103 87.9225C178.843 87.8625 178.603 87.8125 178.383 87.7625C178.163 87.7125 177.933 87.6625 177.713 87.6125C177.493 87.5625 177.263 87.5125 177.043 87.4725C176.823 87.4325 176.573 87.3925 176.313 87.3625C176.073 87.3325 175.853 87.3025 175.653 87.2825L175.643 87.3125Z" fill="#F0088F"/>
<path d="M247.282 156.625L12.5115 201.92C9.65365 202.471 7.78389 205.235 8.33525 208.093L22.2268 280.095C22.7781 282.953 25.5418 284.823 28.3997 284.271L263.17 238.977C266.028 238.425 267.898 235.662 267.346 232.804L253.455 160.802C252.904 157.944 250.14 156.074 247.282 156.625Z" fill="#F8F00E"/>
<path d="M20.1426 276.732C17.3826 276.732 15.0026 274.762 14.4826 272.052L0.592585 200.052C-0.00741505 196.932 2.04258 193.892 5.16258 193.292L239.933 148.012C240.293 147.942 240.663 147.912 241.033 147.912C243.793 147.912 246.173 149.882 246.693 152.592L260.583 224.592C261.183 227.712 259.133 230.752 256.013 231.352L21.2426 276.632C20.8826 276.702 20.5126 276.742 20.1426 276.742V276.732Z" fill="#BCD057"/>
<path d="M241.043 148.402C243.523 148.402 245.723 150.152 246.213 152.672L260.103 224.672C260.653 227.532 258.783 230.292 255.923 230.842L21.153 276.122C20.813 276.192 20.483 276.222 20.153 276.222C17.673 276.222 15.473 274.472 14.983 271.952L1.09299 199.952C0.542991 197.092 2.41299 194.332 5.27299 193.782L240.043 148.502C240.383 148.432 240.713 148.402 241.043 148.402ZM241.043 147.402C240.643 147.402 240.243 147.442 239.853 147.512L5.083 192.792C1.683 193.442 -0.537005 196.742 0.112995 200.142L14.003 272.142C14.573 275.092 17.163 277.222 20.153 277.222C20.553 277.222 20.953 277.182 21.343 277.112L256.113 231.832C259.513 231.182 261.733 227.882 261.083 224.482L247.193 152.482C246.623 149.532 244.033 147.402 241.043 147.402Z" fill="white"/>
<path d="M74.8229 223.033L76.6129 232.063L70.9429 233.153L68.9929 222.233L65.9629 207.633L74.9629 205.903C76.7529 205.563 78.4929 205.873 80.1829 206.843C81.8729 207.813 82.9829 209.623 83.5129 212.273C84.0629 215.043 83.8229 217.303 82.8029 219.043C81.7729 220.783 80.3629 221.843 78.5629 222.213L74.8229 223.043V223.033ZM78.9229 217.283L77.6929 210.893L71.2229 211.603L72.3929 218.643L78.9229 217.273V217.283Z" fill="#5C7B3C"/>
<path d="M96.8127 226.312C96.7527 226.252 96.6527 226.362 96.5427 226.632C96.4227 226.902 96.2327 227.222 95.9627 227.582C95.7227 227.892 95.4027 228.192 95.0027 228.482C94.6027 228.772 94.0927 228.992 93.4627 229.132C91.7527 229.532 90.3427 229.382 89.2027 228.682C88.0727 227.982 87.3427 226.762 87.0227 225.022C86.6927 223.302 86.9627 221.852 87.8427 220.672C88.7227 219.492 89.7927 218.712 91.0527 218.322L94.6827 217.192L94.0427 213.892C93.5827 213.912 93.1827 213.932 92.8527 213.942C92.6927 213.942 92.5227 213.962 92.3427 213.982C92.1627 214.002 91.9727 214.022 91.7827 214.042C91.5527 214.062 91.3227 214.092 91.0927 214.122C90.8627 214.152 90.6427 214.192 90.4627 214.222C90.2427 214.262 90.0427 214.312 89.8927 214.372C89.7327 214.432 89.6527 214.482 89.6427 214.532C89.6227 214.632 89.6227 214.742 89.6227 214.862C89.6227 214.982 89.6427 215.092 89.6627 215.212C89.6827 215.422 89.7127 215.612 89.7427 215.782C89.7727 215.952 89.8027 216.082 89.8227 216.182C89.8227 216.232 89.8427 216.262 89.8427 216.282C89.8427 216.302 89.8427 216.332 89.8527 216.352L86.0127 217.232C86.0127 217.232 85.9927 217.152 85.9927 217.132C85.9427 216.952 85.8927 216.552 85.8427 215.912C85.7927 215.282 85.9027 214.502 86.1927 213.562C86.3527 213.012 86.7827 212.512 87.4927 212.082C88.2027 211.652 88.9827 211.292 89.8427 211.002C90.2427 210.852 90.6427 210.732 91.0427 210.642C91.4427 210.552 91.8127 210.472 92.1627 210.412C95.5727 209.892 97.6727 210.512 98.4627 212.262C99.2527 214.012 99.8727 216.392 100.303 219.392C100.333 219.652 100.373 219.912 100.413 220.172C100.453 220.442 100.493 220.712 100.533 220.992C100.573 221.312 100.633 221.652 100.713 221.992C100.783 222.332 100.873 222.692 100.953 223.052C101.043 223.412 101.133 223.782 101.233 224.142C101.333 224.502 101.413 224.842 101.493 225.162C101.653 225.702 101.783 226.142 101.883 226.492C101.983 226.842 102.043 227.042 102.053 227.082L97.3627 227.882C97.3627 227.882 97.3427 227.792 97.3327 227.742C97.3227 227.672 97.3027 227.572 97.2727 227.452C97.2527 227.332 97.2227 227.192 97.1927 227.062C97.1427 226.902 97.0927 226.752 97.0527 226.602C97.0027 226.462 96.9527 226.352 96.8827 226.292H96.8027L96.8127 226.312ZM91.5927 221.592C91.5227 221.772 91.4627 221.952 91.4227 222.122C91.4027 222.292 91.3927 222.502 91.3927 222.732C91.3927 222.972 91.4127 223.252 91.4627 223.572C91.5127 223.942 91.5727 224.242 91.6427 224.462C91.7127 224.682 91.7727 224.852 91.8327 224.962C91.8927 225.072 91.9527 225.162 92.0227 225.242L96.8427 224.312L96.2927 220.642L91.5827 221.582L91.5927 221.592Z" fill="#5C7B3C"/>
<path d="M113.243 213.483L113.843 216.183L109.273 216.353L109.033 214.833L108.633 213.053L106.253 213.443C106.253 213.443 106.373 213.993 106.583 215.033C106.803 216.073 107.043 217.233 107.303 218.513C107.303 218.563 107.323 218.603 107.343 218.653C107.363 218.693 107.373 218.753 107.383 218.823C107.453 219.193 107.533 219.563 107.613 219.933C107.693 220.313 107.773 220.673 107.833 221.013C107.923 221.493 108.013 221.933 108.103 222.313C108.183 222.703 108.263 223.083 108.333 223.443C108.403 223.813 108.473 224.183 108.543 224.563C108.613 224.943 108.693 225.343 108.783 225.783L103.933 226.713C103.813 225.813 103.693 224.973 103.583 224.213C103.473 223.453 103.353 222.713 103.233 222.003C103.113 221.293 102.983 220.553 102.833 219.793C102.683 219.033 102.523 218.213 102.333 217.323C102.173 216.593 102.023 215.923 101.893 215.303C101.753 214.683 101.613 214.083 101.463 213.493C101.313 212.903 101.163 212.303 100.993 211.693C100.833 211.083 100.643 210.413 100.433 209.693L104.683 209.303L105.303 211.963C105.433 211.253 105.613 210.673 105.853 210.223C106.073 209.803 106.393 209.393 106.813 208.983C107.233 208.583 107.793 208.293 108.493 208.103C109.873 207.743 110.863 208.073 111.493 209.093C112.113 210.113 112.593 211.283 112.913 212.593C112.943 212.733 112.973 212.873 113.013 213.023C113.053 213.173 113.083 213.313 113.113 213.453H113.223L113.243 213.483Z" fill="#5C7B3C"/>
<path d="M123.713 209.252L119.573 209.692L121.393 220.212L123.773 219.542L123.163 216.092L126.233 215.642C126.233 215.782 126.253 215.932 126.273 216.082C126.293 216.232 126.303 216.382 126.313 216.522C126.483 218.062 126.433 219.422 126.163 220.612C125.893 221.802 124.633 222.662 122.383 223.192C122.243 223.222 122.103 223.242 121.953 223.272C121.803 223.302 121.653 223.332 121.503 223.362C120.783 223.432 120.093 223.382 119.413 223.212C118.743 223.042 118.263 222.762 117.993 222.362C117.963 222.322 117.943 222.282 117.913 222.252C117.893 222.222 117.863 222.182 117.843 222.142C117.803 222.102 117.763 222.062 117.723 222.022C117.683 221.982 117.653 221.942 117.633 221.902C117.443 221.672 117.253 221.302 117.043 220.782C116.833 220.262 116.593 219.342 116.323 218.012C116.233 217.552 116.163 217.142 116.113 216.772C116.063 216.402 116.003 216.032 115.953 215.662C115.923 215.312 115.883 214.942 115.843 214.562C115.803 214.182 115.773 213.762 115.733 213.312L115.473 210.302C115.473 210.302 115.473 210.252 115.463 210.232C115.463 210.212 115.463 210.172 115.463 210.122C115.463 210.102 115.463 210.072 115.453 210.052C115.453 210.032 115.453 210.002 115.443 209.982C115.423 209.892 115.403 209.812 115.373 209.742C115.343 209.672 115.293 209.622 115.233 209.592C115.213 209.572 115.183 209.552 115.143 209.542C115.123 209.522 115.103 209.512 115.083 209.522C115.063 209.522 115.043 209.522 115.033 209.522C115.003 209.522 114.963 209.542 114.923 209.562C114.883 209.582 114.843 209.592 114.813 209.602C114.783 209.632 114.743 209.652 114.703 209.672C114.663 209.692 114.613 209.702 114.563 209.712L113.433 209.932L112.883 206.512L115.413 206.022L115.793 200.242L118.213 199.772L118.933 205.192L123.043 204.332L123.693 209.232L123.713 209.252Z" fill="#5C7B3C"/>
<path d="M147.473 212.413L148.533 218.483C147.843 218.523 147.213 218.573 146.643 218.653C146.073 218.733 145.513 218.793 144.973 218.853C144.453 218.953 143.923 219.053 143.373 219.143C142.823 219.233 142.223 219.343 141.563 219.473C140.903 219.603 140.313 219.723 139.783 219.833C139.253 219.953 138.743 220.053 138.243 220.153C137.743 220.273 137.243 220.403 136.723 220.533C136.203 220.673 135.643 220.823 135.033 220.983L134.113 215.633C134.063 215.383 133.993 214.963 133.913 214.373C133.823 213.783 133.783 213.153 133.773 212.493C133.773 212.163 133.793 211.833 133.823 211.523C133.853 211.213 133.903 210.903 133.963 210.603C134.083 210.123 134.263 209.693 134.503 209.283C134.743 208.873 134.993 208.523 135.273 208.203C135.623 207.803 135.963 207.473 136.283 207.203C136.603 206.943 136.853 206.763 137.013 206.683L140.823 204.233L139.403 197.413L135.533 198.163L136.623 203.553L131.803 204.623L131.293 201.973C130.933 200.093 131.183 198.423 132.053 196.963C132.923 195.503 133.983 194.483 135.243 193.903C135.473 193.783 135.703 193.693 135.953 193.623C136.203 193.553 136.443 193.493 136.683 193.443C138.673 193.133 140.453 193.463 142.033 194.443C143.613 195.423 144.673 197.283 145.223 200.033C145.763 202.663 145.683 204.633 144.973 205.943C144.263 207.253 143.243 208.373 141.903 209.293L139.353 211.063C139.293 211.103 139.223 211.133 139.163 211.173C139.103 211.213 139.043 211.243 138.993 211.273C138.813 211.353 138.653 211.453 138.513 211.583C138.373 211.703 138.263 211.883 138.183 212.113C138.133 212.293 138.103 212.493 138.113 212.733C138.113 212.973 138.153 213.213 138.203 213.463C138.243 213.643 138.273 213.823 138.323 213.993C138.363 214.163 138.403 214.293 138.443 214.383C138.453 214.453 138.473 214.493 138.483 214.513C138.493 214.533 138.503 214.553 138.513 214.583L147.473 212.393V212.413Z" fill="#5C7B3C"/>
<path d="M246.213 152.672L260.103 224.672C260.653 227.532 258.783 230.292 255.923 230.842L237.703 234.352L194.973 200.052L222.083 151.952L240.043 148.492C242.903 147.942 245.663 149.812 246.213 152.672Z" fill="#A4BE40"/>
<path d="M221.923 184.273L220.353 176.143L212.843 196.453L227.373 212.513L225.803 204.383L239.993 201.643L236.113 181.533L221.923 184.273Z" fill="#85489F"/>
<path d="M260.666 356.571L24.1372 321.601C21.2579 321.176 18.5787 323.165 18.1531 326.044L7.42813 398.585C7.00245 401.465 8.99146 404.144 11.8707 404.569L248.4 439.539C251.279 439.965 253.958 437.976 254.384 435.097L265.109 362.555C265.534 359.676 263.545 356.997 260.666 356.571Z" fill="#F8F00E"/>
<path d="M245.053 430.012C244.773 430.012 244.493 429.992 244.203 429.952L7.67277 394.982C4.52277 394.512 2.34277 391.572 2.81277 388.432L13.5328 315.892C13.9528 313.082 16.4028 310.962 19.2328 310.962C19.5128 310.962 19.7928 310.982 20.0828 311.022L256.613 345.982C259.763 346.452 261.943 349.392 261.483 352.532L250.763 425.072C250.343 427.882 247.893 430.002 245.063 430.002L245.053 430.012Z" fill="#BCD057"/>
<path d="M19.2329 311.452C19.4929 311.452 19.7529 311.472 20.0129 311.512L256.543 346.482C259.423 346.912 261.413 349.592 260.983 352.472L250.263 425.012C249.873 427.632 247.623 429.512 245.053 429.512C244.793 429.512 244.533 429.492 244.273 429.452L7.74295 394.482C4.86295 394.052 2.87294 391.372 3.30294 388.492L14.0229 315.952C14.4129 313.332 16.6629 311.452 19.2329 311.452ZM19.2329 310.452C16.1529 310.452 13.4829 312.752 13.0329 315.802L2.31294 388.342C2.07294 390.002 2.48294 391.652 3.48294 393.002C4.48294 394.342 5.94293 395.222 7.60293 395.472L244.133 430.442C244.443 430.492 244.753 430.512 245.053 430.512C248.133 430.512 250.803 428.212 251.253 425.162L261.973 352.622C262.483 349.202 260.103 346.012 256.683 345.502L20.1529 310.532C19.8429 310.482 19.5329 310.462 19.2329 310.462V310.452Z" fill="white"/>
<path d="M73.043 364.202L71.753 373.312L66.043 372.472L67.823 361.522L69.793 346.742L78.853 348.082C80.653 348.352 82.193 349.222 83.473 350.692C84.753 352.162 85.203 354.242 84.823 356.922C84.423 359.722 83.453 361.772 81.913 363.072C80.363 364.372 78.683 364.902 76.863 364.662L73.053 364.202H73.043ZM78.823 360.142L79.773 353.702L73.433 352.232L72.203 359.272L78.813 360.142H78.823Z" fill="#5C7B3C"/>
<path d="M92.7128 374.582C92.6728 374.502 92.5528 374.582 92.3528 374.792C92.1528 375.012 91.8629 375.242 91.4929 375.502C91.1629 375.712 90.7629 375.892 90.2829 376.032C89.8129 376.172 89.2529 376.212 88.6129 376.142C86.8729 375.952 85.5829 375.342 84.7429 374.312C83.9029 373.282 83.6228 371.892 83.9028 370.142C84.1628 368.412 84.8929 367.132 86.1129 366.312C87.3329 365.492 88.6029 365.102 89.9229 365.162L93.7229 365.302L94.2128 361.982C93.7728 361.852 93.3928 361.732 93.0728 361.632C92.9228 361.592 92.7528 361.542 92.5728 361.502C92.3928 361.462 92.2129 361.422 92.0229 361.372C91.8029 361.322 91.5729 361.262 91.3429 361.222C91.1129 361.172 90.9028 361.142 90.7128 361.112C90.4928 361.082 90.2929 361.062 90.1229 361.062C89.9529 361.062 89.8629 361.082 89.8329 361.122C89.7829 361.212 89.7428 361.312 89.7128 361.422C89.6728 361.532 89.6529 361.652 89.6329 361.762C89.5829 361.972 89.5529 362.152 89.5229 362.332C89.4929 362.502 89.4728 362.642 89.4628 362.732C89.4628 362.782 89.4529 362.812 89.4529 362.832C89.4529 362.852 89.4529 362.882 89.4429 362.902L85.5229 362.462C85.5229 362.462 85.5329 362.382 85.5329 362.362C85.5329 362.172 85.6328 361.772 85.7928 361.162C85.9528 360.552 86.3228 359.852 86.9028 359.062C87.2328 358.592 87.8129 358.272 88.6229 358.092C89.4329 357.922 90.2929 357.842 91.1929 357.852C91.6229 357.852 92.0329 357.862 92.4429 357.912C92.8529 357.962 93.2328 358.012 93.5728 358.062C96.9628 358.702 98.7429 359.982 98.9129 361.892C99.0829 363.802 98.8728 366.252 98.2928 369.232C98.2428 369.482 98.1829 369.742 98.1429 370.002C98.0929 370.272 98.0429 370.532 97.9829 370.812C97.9129 371.132 97.8628 371.462 97.8228 371.812C97.7828 372.162 97.7429 372.522 97.7029 372.892C97.6629 373.262 97.6328 373.642 97.6028 374.012C97.5728 374.382 97.5429 374.732 97.5129 375.062C97.4829 375.622 97.4629 376.092 97.4429 376.452C97.4229 376.812 97.4129 377.022 97.4029 377.062L92.7229 376.262C92.7229 376.262 92.7329 376.172 92.7429 376.122C92.7429 376.052 92.7629 375.952 92.7829 375.832C92.8029 375.712 92.8229 375.572 92.8429 375.432C92.8429 375.272 92.8529 375.112 92.8629 374.962C92.8729 374.812 92.8529 374.692 92.8029 374.622H92.7229L92.7128 374.582ZM89.3528 368.372C89.2228 368.522 89.1129 368.672 89.0229 368.822C88.9429 368.972 88.8728 369.162 88.7928 369.392C88.7128 369.612 88.6429 369.892 88.5829 370.212C88.5129 370.582 88.4728 370.882 88.4628 371.112C88.4628 371.342 88.4629 371.522 88.4729 371.642C88.4829 371.762 88.5229 371.872 88.5529 371.972L93.4129 372.692L94.1129 369.042L89.3528 368.372Z" fill="#5C7B3C"/>
<path d="M112.463 367.912L112.133 370.662L107.773 369.312L108.053 367.792L108.263 365.982L105.883 365.562C105.883 365.562 105.813 366.122 105.673 367.172C105.533 368.222 105.383 369.402 105.203 370.692C105.203 370.742 105.203 370.782 105.203 370.832C105.203 370.882 105.203 370.942 105.193 371.012C105.143 371.382 105.083 371.752 105.043 372.142C104.993 372.522 104.943 372.892 104.893 373.232C104.823 373.712 104.763 374.152 104.713 374.552C104.663 374.942 104.613 375.332 104.553 375.692C104.503 376.062 104.443 376.432 104.383 376.812C104.323 377.192 104.263 377.602 104.203 378.042L99.3232 377.322C99.5032 376.432 99.6732 375.602 99.8232 374.852C99.9732 374.092 100.103 373.362 100.233 372.652C100.363 371.942 100.473 371.202 100.583 370.442C100.693 369.682 100.813 368.852 100.923 367.942C101.013 367.202 101.093 366.512 101.173 365.892C101.243 365.272 101.313 364.652 101.363 364.042C101.413 363.442 101.473 362.822 101.513 362.192C101.553 361.562 101.603 360.872 101.643 360.122L105.783 361.162L105.493 363.872C105.853 363.242 106.213 362.752 106.583 362.412C106.933 362.082 107.373 361.802 107.903 361.562C108.433 361.322 109.053 361.232 109.773 361.292C111.193 361.412 112.023 362.052 112.273 363.222C112.523 364.392 112.583 365.652 112.453 367.002C112.433 367.142 112.413 367.292 112.403 367.442C112.393 367.592 112.373 367.742 112.353 367.882L112.453 367.932L112.463 367.912Z" fill="#5C7B3C"/>
<path d="M123.733 367.382L119.683 366.432L117.913 376.962L120.383 377.112L120.943 373.652L123.983 374.242C123.943 374.382 123.913 374.522 123.883 374.672C123.853 374.822 123.813 374.962 123.783 375.102C123.433 376.602 122.943 377.882 122.293 378.912C121.643 379.952 120.173 380.342 117.873 380.102C117.733 380.082 117.593 380.062 117.443 380.042C117.293 380.022 117.143 380.002 116.993 379.972C116.293 379.802 115.653 379.522 115.073 379.142C114.493 378.762 114.143 378.342 114.013 377.872C114.003 377.822 113.993 377.782 113.983 377.742C113.973 377.702 113.963 377.662 113.953 377.612C113.923 377.562 113.903 377.512 113.883 377.462C113.863 377.412 113.853 377.362 113.843 377.312C113.743 377.032 113.683 376.622 113.653 376.062C113.633 375.502 113.703 374.552 113.893 373.212C113.963 372.752 114.033 372.332 114.103 371.972C114.173 371.612 114.243 371.242 114.323 370.872C114.413 370.532 114.493 370.172 114.583 369.792C114.673 369.412 114.783 369.012 114.893 368.582L115.643 365.652C115.643 365.652 115.643 365.602 115.653 365.582C115.653 365.562 115.673 365.522 115.693 365.482C115.693 365.462 115.693 365.432 115.703 365.412C115.703 365.392 115.703 365.362 115.703 365.342C115.713 365.252 115.723 365.172 115.703 365.092C115.683 365.012 115.673 364.962 115.623 364.902C115.613 364.872 115.583 364.852 115.553 364.822C115.543 364.792 115.523 364.782 115.503 364.782C115.483 364.782 115.463 364.782 115.453 364.782C115.413 364.782 115.373 364.782 115.333 364.782C115.293 364.782 115.253 364.782 115.213 364.782C115.173 364.802 115.133 364.812 115.093 364.812C115.043 364.812 115.003 364.812 114.943 364.812L113.803 364.642L114.413 361.232L116.953 361.612L119.223 356.292L121.663 356.652L120.553 362.012L124.713 362.552L123.703 367.392L123.733 367.382Z" fill="#5C7B3C"/>
<path d="M136.233 379.452L140.393 380.072L141.183 373.322L137.123 372.442L137.833 367.662L141.263 368.172L142.563 362.242L138.513 360.932L137.793 365.812L133.153 364.522C133.153 364.522 133.163 364.432 133.173 364.382C133.193 364.102 133.303 363.532 133.483 362.662C133.663 361.792 133.993 360.902 134.463 359.972C135.053 358.852 135.903 357.882 137.013 357.062C138.123 356.232 139.653 355.962 141.593 356.252C143.393 356.522 144.863 357.352 146.003 358.742C147.143 360.132 147.573 362.162 147.313 364.812C147.163 366.202 146.853 367.252 146.383 367.942C145.913 368.642 145.433 369.142 144.923 369.442C144.533 369.672 144.183 369.822 143.853 369.922C143.533 370.012 143.313 370.112 143.183 370.212C143.143 370.232 143.113 370.252 143.093 370.282C143.073 370.312 143.053 370.342 143.053 370.362C143.053 370.382 143.053 370.402 143.053 370.412C143.053 370.422 143.073 370.442 143.083 370.472C143.173 370.602 143.403 370.782 143.783 371.002C144.163 371.222 144.563 371.562 144.973 372.022C145.413 372.512 145.793 373.192 146.103 374.052C146.423 374.912 146.493 376.052 146.313 377.462C146.013 379.992 144.963 381.772 143.173 382.802C141.383 383.832 139.453 384.202 137.373 383.892C135.283 383.582 133.803 382.912 132.963 381.892C132.113 380.872 131.603 379.792 131.433 378.662C131.353 378.152 131.313 377.652 131.323 377.162C131.333 376.672 131.373 376.222 131.423 375.832C131.453 375.622 131.483 375.432 131.523 375.242C131.563 375.062 131.593 374.902 131.633 374.762C131.663 374.652 131.703 374.512 131.743 374.352L137.093 375.142L136.223 379.432L136.233 379.452Z" fill="#5C7B3C"/>
<path d="M260.983 352.462L250.263 425.002C249.833 427.882 247.153 429.872 244.283 429.442L225.923 426.732L196.953 380.222L238.453 343.802L256.543 346.472C259.423 346.902 261.413 349.582 260.983 352.452V352.462Z" fill="#A4BE40"/>
<path d="M227.613 374.242L228.823 366.052L215.003 382.732L223.403 402.692L224.613 394.502L238.913 396.622L241.913 376.362L227.613 374.242Z" fill="#85489F"/>
<defs>
<linearGradient id="paint0_linear_18_124" x1="123.141" y1="242.245" x2="145.117" y2="244.167" gradientUnits="userSpaceOnUse">
<stop stop-color="#D4D5D4"/>
<stop offset="0.52" stop-color="#B6B6B6"/>
<stop offset="1" stop-color="#989898"/>
</linearGradient>
</defs>
</svg>
